<?xml version="1.0" encoding="utf-8" standalone="no"?>
<!DOCTYPE svg PUBLIC "-//W3C//DTD SVG 1.1//EN"
  "http://www.w3.org/Graphics/SVG/1.1/DTD/svg11.dtd">
<svg xmlns:xlink="http://www.w3.org/1999/xlink" width="615.007187pt" height="413.4375pt" viewBox="0 0 615.007187 413.4375" xmlns="http://www.w3.org/2000/svg" version="1.1">
 <metadata>
  <rdf:RDF xmlns:dc="http://purl.org/dc/elements/1.1/" xmlns:cc="http://creativecommons.org/ns#" xmlns:rdf="http://www.w3.org/1999/02/22-rdf-syntax-ns#">
   <cc:Work>
    <dc:type rdf:resource="http://purl.org/dc/dcmitype/StillImage"/>
    <dc:date>2026-04-24T01:29:27.927420</dc:date>
    <dc:format>image/svg+xml</dc:format>
    <dc:creator>
     <cc:Agent>
      <dc:title>Matplotlib v3.10.0, https://matplotlib.org/</dc:title>
     </cc:Agent>
    </dc:creator>
   </cc:Work>
  </rdf:RDF>
 </metadata>
 <defs>
  <style type="text/css">*{stroke-linejoin: round; stroke-linecap: butt}</style>
 </defs>
 <g id="figure_1">
  <g id="patch_1">
   <path d="M 0 413.4375 
L 615.007187 413.4375 
L 615.007187 0 
L 0 0 
z
" style="fill: #ffffff"/>
  </g>
  <g id="axes_1">
   <g id="patch_2">
    <path d="M 49.807188 370.477813 
L 607.807188 370.477813 
L 607.807188 37.837813 
L 49.807188 37.837813 
z
" style="fill: #ffffff"/>
   </g>
   <g id="matplotlib.axis_1">
    <g id="xtick_1">
     <g id="line2d_1">
      <path d="M 99.457648 370.477813 
L 99.457648 37.837813 
" clip-path="url(#p2d00582ee7)" style="fill: none; stroke: #cccccc; stroke-linecap: round"/>
     </g>
     <g id="text_1">
      <!-- −0.2 -->
      <g style="fill: #262626" transform="translate(86.102101 388.336094) scale(0.11 -0.11)">
       <defs>
        <path id="DejaVuSans-2212" d="M 678 2272 
L 4684 2272 
L 4684 1741 
L 678 1741 
L 678 2272 
z
" transform="scale(0.015625)"/>
        <path id="DejaVuSans-30" d="M 2034 4250 
Q 1547 4250 1301 3770 
Q 1056 3291 1056 2328 
Q 1056 1369 1301 889 
Q 1547 409 2034 409 
Q 2525 409 2770 889 
Q 3016 1369 3016 2328 
Q 3016 3291 2770 3770 
Q 2525 4250 2034 4250 
z
M 2034 4750 
Q 2819 4750 3233 4129 
Q 3647 3509 3647 2328 
Q 3647 1150 3233 529 
Q 2819 -91 2034 -91 
Q 1250 -91 836 529 
Q 422 1150 422 2328 
Q 422 3509 836 4129 
Q 1250 4750 2034 4750 
z
" transform="scale(0.015625)"/>
        <path id="DejaVuSans-2e" d="M 684 794 
L 1344 794 
L 1344 0 
L 684 0 
L 684 794 
z
" transform="scale(0.015625)"/>
        <path id="DejaVuSans-32" d="M 1228 531 
L 3431 531 
L 3431 0 
L 469 0 
L 469 531 
Q 828 903 1448 1529 
Q 2069 2156 2228 2338 
Q 2531 2678 2651 2914 
Q 2772 3150 2772 3378 
Q 2772 3750 2511 3984 
Q 2250 4219 1831 4219 
Q 1534 4219 1204 4116 
Q 875 4013 500 3803 
L 500 4441 
Q 881 4594 1212 4672 
Q 1544 4750 1819 4750 
Q 2544 4750 2975 4387 
Q 3406 4025 3406 3419 
Q 3406 3131 3298 2873 
Q 3191 2616 2906 2266 
Q 2828 2175 2409 1742 
Q 1991 1309 1228 531 
z
" transform="scale(0.015625)"/>
       </defs>
       <use xlink:href="#DejaVuSans-2212"/>
       <use xlink:href="#DejaVuSans-30" transform="translate(83.789062 0)"/>
       <use xlink:href="#DejaVuSans-2e" transform="translate(147.412109 0)"/>
       <use xlink:href="#DejaVuSans-32" transform="translate(179.199219 0)"/>
      </g>
     </g>
    </g>
    <g id="xtick_2">
     <g id="line2d_2">
      <path d="M 165.467775 370.477813 
L 165.467775 37.837813 
" clip-path="url(#p2d00582ee7)" style="fill: none; stroke: #cccccc; stroke-linecap: round"/>
     </g>
     <g id="text_2">
      <!-- 0.0 -->
      <g style="fill: #262626" transform="translate(156.721056 388.336094) scale(0.11 -0.11)">
       <use xlink:href="#DejaVuSans-30"/>
       <use xlink:href="#DejaVuSans-2e" transform="translate(63.623047 0)"/>
       <use xlink:href="#DejaVuSans-30" transform="translate(95.410156 0)"/>
      </g>
     </g>
    </g>
    <g id="xtick_3">
     <g id="line2d_3">
      <path d="M 231.477902 370.477813 
L 231.477902 37.837813 
" clip-path="url(#p2d00582ee7)" style="fill: none; stroke: #cccccc; stroke-linecap: round"/>
     </g>
     <g id="text_3">
      <!-- 0.2 -->
      <g style="fill: #262626" transform="translate(222.731184 388.336094) scale(0.11 -0.11)">
       <use xlink:href="#DejaVuSans-30"/>
       <use xlink:href="#DejaVuSans-2e" transform="translate(63.623047 0)"/>
       <use xlink:href="#DejaVuSans-32" transform="translate(95.410156 0)"/>
      </g>
     </g>
    </g>
    <g id="xtick_4">
     <g id="line2d_4">
      <path d="M 297.48803 370.477813 
L 297.48803 37.837813 
" clip-path="url(#p2d00582ee7)" style="fill: none; stroke: #cccccc; stroke-linecap: round"/>
     </g>
     <g id="text_4">
      <!-- 0.4 -->
      <g style="fill: #262626" transform="translate(288.741311 388.336094) scale(0.11 -0.11)">
       <defs>
        <path id="DejaVuSans-34" d="M 2419 4116 
L 825 1625 
L 2419 1625 
L 2419 4116 
z
M 2253 4666 
L 3047 4666 
L 3047 1625 
L 3713 1625 
L 3713 1100 
L 3047 1100 
L 3047 0 
L 2419 0 
L 2419 1100 
L 313 1100 
L 313 1709 
L 2253 4666 
z
" transform="scale(0.015625)"/>
       </defs>
       <use xlink:href="#DejaVuSans-30"/>
       <use xlink:href="#DejaVuSans-2e" transform="translate(63.623047 0)"/>
       <use xlink:href="#DejaVuSans-34" transform="translate(95.410156 0)"/>
      </g>
     </g>
    </g>
    <g id="xtick_5">
     <g id="line2d_5">
      <path d="M 363.498157 370.477813 
L 363.498157 37.837813 
" clip-path="url(#p2d00582ee7)" style="fill: none; stroke: #cccccc; stroke-linecap: round"/>
     </g>
     <g id="text_5">
      <!-- 0.6 -->
      <g style="fill: #262626" transform="translate(354.751438 388.336094) scale(0.11 -0.11)">
       <defs>
        <path id="DejaVuSans-36" d="M 2113 2584 
Q 1688 2584 1439 2293 
Q 1191 2003 1191 1497 
Q 1191 994 1439 701 
Q 1688 409 2113 409 
Q 2538 409 2786 701 
Q 3034 994 3034 1497 
Q 3034 2003 2786 2293 
Q 2538 2584 2113 2584 
z
M 3366 4563 
L 3366 3988 
Q 3128 4100 2886 4159 
Q 2644 4219 2406 4219 
Q 1781 4219 1451 3797 
Q 1122 3375 1075 2522 
Q 1259 2794 1537 2939 
Q 1816 3084 2150 3084 
Q 2853 3084 3261 2657 
Q 3669 2231 3669 1497 
Q 3669 778 3244 343 
Q 2819 -91 2113 -91 
Q 1303 -91 875 529 
Q 447 1150 447 2328 
Q 447 3434 972 4092 
Q 1497 4750 2381 4750 
Q 2619 4750 2861 4703 
Q 3103 4656 3366 4563 
z
" transform="scale(0.015625)"/>
       </defs>
       <use xlink:href="#DejaVuSans-30"/>
       <use xlink:href="#DejaVuSans-2e" transform="translate(63.623047 0)"/>
       <use xlink:href="#DejaVuSans-36" transform="translate(95.410156 0)"/>
      </g>
     </g>
    </g>
    <g id="xtick_6">
     <g id="line2d_6">
      <path d="M 429.508284 370.477813 
L 429.508284 37.837813 
" clip-path="url(#p2d00582ee7)" style="fill: none; stroke: #cccccc; stroke-linecap: round"/>
     </g>
     <g id="text_6">
      <!-- 0.8 -->
      <g style="fill: #262626" transform="translate(420.761565 388.336094) scale(0.11 -0.11)">
       <defs>
        <path id="DejaVuSans-38" d="M 2034 2216 
Q 1584 2216 1326 1975 
Q 1069 1734 1069 1313 
Q 1069 891 1326 650 
Q 1584 409 2034 409 
Q 2484 409 2743 651 
Q 3003 894 3003 1313 
Q 3003 1734 2745 1975 
Q 2488 2216 2034 2216 
z
M 1403 2484 
Q 997 2584 770 2862 
Q 544 3141 544 3541 
Q 544 4100 942 4425 
Q 1341 4750 2034 4750 
Q 2731 4750 3128 4425 
Q 3525 4100 3525 3541 
Q 3525 3141 3298 2862 
Q 3072 2584 2669 2484 
Q 3125 2378 3379 2068 
Q 3634 1759 3634 1313 
Q 3634 634 3220 271 
Q 2806 -91 2034 -91 
Q 1263 -91 848 271 
Q 434 634 434 1313 
Q 434 1759 690 2068 
Q 947 2378 1403 2484 
z
M 1172 3481 
Q 1172 3119 1398 2916 
Q 1625 2713 2034 2713 
Q 2441 2713 2670 2916 
Q 2900 3119 2900 3481 
Q 2900 3844 2670 4047 
Q 2441 4250 2034 4250 
Q 1625 4250 1398 4047 
Q 1172 3844 1172 3481 
z
" transform="scale(0.015625)"/>
       </defs>
       <use xlink:href="#DejaVuSans-30"/>
       <use xlink:href="#DejaVuSans-2e" transform="translate(63.623047 0)"/>
       <use xlink:href="#DejaVuSans-38" transform="translate(95.410156 0)"/>
      </g>
     </g>
    </g>
    <g id="xtick_7">
     <g id="line2d_7">
      <path d="M 495.518411 370.477813 
L 495.518411 37.837813 
" clip-path="url(#p2d00582ee7)" style="fill: none; stroke: #cccccc; stroke-linecap: round"/>
     </g>
     <g id="text_7">
      <!-- 1.0 -->
      <g style="fill: #262626" transform="translate(486.771693 388.336094) scale(0.11 -0.11)">
       <defs>
        <path id="DejaVuSans-31" d="M 794 531 
L 1825 531 
L 1825 4091 
L 703 3866 
L 703 4441 
L 1819 4666 
L 2450 4666 
L 2450 531 
L 3481 531 
L 3481 0 
L 794 0 
L 794 531 
z
" transform="scale(0.015625)"/>
       </defs>
       <use xlink:href="#DejaVuSans-31"/>
       <use xlink:href="#DejaVuSans-2e" transform="translate(63.623047 0)"/>
       <use xlink:href="#DejaVuSans-30" transform="translate(95.410156 0)"/>
      </g>
     </g>
    </g>
    <g id="xtick_8">
     <g id="line2d_8">
      <path d="M 561.528539 370.477813 
L 561.528539 37.837813 
" clip-path="url(#p2d00582ee7)" style="fill: none; stroke: #cccccc; stroke-linecap: round"/>
     </g>
     <g id="text_8">
      <!-- 1.2 -->
      <g style="fill: #262626" transform="translate(552.78182 388.336094) scale(0.11 -0.11)">
       <use xlink:href="#DejaVuSans-31"/>
       <use xlink:href="#DejaVuSans-2e" transform="translate(63.623047 0)"/>
       <use xlink:href="#DejaVuSans-32" transform="translate(95.410156 0)"/>
      </g>
     </g>
    </g>
    <g id="text_9">
     <!-- Debt Mix Ratio (Toxic Debt %) -->
     <g style="fill: #262626" transform="translate(239.501875 403.741875) scale(0.12 -0.12)">
      <defs>
       <path id="DejaVuSans-44" d="M 1259 4147 
L 1259 519 
L 2022 519 
Q 2988 519 3436 956 
Q 3884 1394 3884 2338 
Q 3884 3275 3436 3711 
Q 2988 4147 2022 4147 
L 1259 4147 
z
M 628 4666 
L 1925 4666 
Q 3281 4666 3915 4102 
Q 4550 3538 4550 2338 
Q 4550 1131 3912 565 
Q 3275 0 1925 0 
L 628 0 
L 628 4666 
z
" transform="scale(0.015625)"/>
       <path id="DejaVuSans-65" d="M 3597 1894 
L 3597 1613 
L 953 1613 
Q 991 1019 1311 708 
Q 1631 397 2203 397 
Q 2534 397 2845 478 
Q 3156 559 3463 722 
L 3463 178 
Q 3153 47 2828 -22 
Q 2503 -91 2169 -91 
Q 1331 -91 842 396 
Q 353 884 353 1716 
Q 353 2575 817 3079 
Q 1281 3584 2069 3584 
Q 2775 3584 3186 3129 
Q 3597 2675 3597 1894 
z
M 3022 2063 
Q 3016 2534 2758 2815 
Q 2500 3097 2075 3097 
Q 1594 3097 1305 2825 
Q 1016 2553 972 2059 
L 3022 2063 
z
" transform="scale(0.015625)"/>
       <path id="DejaVuSans-62" d="M 3116 1747 
Q 3116 2381 2855 2742 
Q 2594 3103 2138 3103 
Q 1681 3103 1420 2742 
Q 1159 2381 1159 1747 
Q 1159 1113 1420 752 
Q 1681 391 2138 391 
Q 2594 391 2855 752 
Q 3116 1113 3116 1747 
z
M 1159 2969 
Q 1341 3281 1617 3432 
Q 1894 3584 2278 3584 
Q 2916 3584 3314 3078 
Q 3713 2572 3713 1747 
Q 3713 922 3314 415 
Q 2916 -91 2278 -91 
Q 1894 -91 1617 61 
Q 1341 213 1159 525 
L 1159 0 
L 581 0 
L 581 4863 
L 1159 4863 
L 1159 2969 
z
" transform="scale(0.015625)"/>
       <path id="DejaVuSans-74" d="M 1172 4494 
L 1172 3500 
L 2356 3500 
L 2356 3053 
L 1172 3053 
L 1172 1153 
Q 1172 725 1289 603 
Q 1406 481 1766 481 
L 2356 481 
L 2356 0 
L 1766 0 
Q 1100 0 847 248 
Q 594 497 594 1153 
L 594 3053 
L 172 3053 
L 172 3500 
L 594 3500 
L 594 4494 
L 1172 4494 
z
" transform="scale(0.015625)"/>
       <path id="DejaVuSans-20" transform="scale(0.015625)"/>
       <path id="DejaVuSans-4d" d="M 628 4666 
L 1569 4666 
L 2759 1491 
L 3956 4666 
L 4897 4666 
L 4897 0 
L 4281 0 
L 4281 4097 
L 3078 897 
L 2444 897 
L 1241 4097 
L 1241 0 
L 628 0 
L 628 4666 
z
" transform="scale(0.015625)"/>
       <path id="DejaVuSans-69" d="M 603 3500 
L 1178 3500 
L 1178 0 
L 603 0 
L 603 3500 
z
M 603 4863 
L 1178 4863 
L 1178 4134 
L 603 4134 
L 603 4863 
z
" transform="scale(0.015625)"/>
       <path id="DejaVuSans-78" d="M 3513 3500 
L 2247 1797 
L 3578 0 
L 2900 0 
L 1881 1375 
L 863 0 
L 184 0 
L 1544 1831 
L 300 3500 
L 978 3500 
L 1906 2253 
L 2834 3500 
L 3513 3500 
z
" transform="scale(0.015625)"/>
       <path id="DejaVuSans-52" d="M 2841 2188 
Q 3044 2119 3236 1894 
Q 3428 1669 3622 1275 
L 4263 0 
L 3584 0 
L 2988 1197 
Q 2756 1666 2539 1819 
Q 2322 1972 1947 1972 
L 1259 1972 
L 1259 0 
L 628 0 
L 628 4666 
L 2053 4666 
Q 2853 4666 3247 4331 
Q 3641 3997 3641 3322 
Q 3641 2881 3436 2590 
Q 3231 2300 2841 2188 
z
M 1259 4147 
L 1259 2491 
L 2053 2491 
Q 2509 2491 2742 2702 
Q 2975 2913 2975 3322 
Q 2975 3731 2742 3939 
Q 2509 4147 2053 4147 
L 1259 4147 
z
" transform="scale(0.015625)"/>
       <path id="DejaVuSans-61" d="M 2194 1759 
Q 1497 1759 1228 1600 
Q 959 1441 959 1056 
Q 959 750 1161 570 
Q 1363 391 1709 391 
Q 2188 391 2477 730 
Q 2766 1069 2766 1631 
L 2766 1759 
L 2194 1759 
z
M 3341 1997 
L 3341 0 
L 2766 0 
L 2766 531 
Q 2569 213 2275 61 
Q 1981 -91 1556 -91 
Q 1019 -91 701 211 
Q 384 513 384 1019 
Q 384 1609 779 1909 
Q 1175 2209 1959 2209 
L 2766 2209 
L 2766 2266 
Q 2766 2663 2505 2880 
Q 2244 3097 1772 3097 
Q 1472 3097 1187 3025 
Q 903 2953 641 2809 
L 641 3341 
Q 956 3463 1253 3523 
Q 1550 3584 1831 3584 
Q 2591 3584 2966 3190 
Q 3341 2797 3341 1997 
z
" transform="scale(0.015625)"/>
       <path id="DejaVuSans-6f" d="M 1959 3097 
Q 1497 3097 1228 2736 
Q 959 2375 959 1747 
Q 959 1119 1226 758 
Q 1494 397 1959 397 
Q 2419 397 2687 759 
Q 2956 1122 2956 1747 
Q 2956 2369 2687 2733 
Q 2419 3097 1959 3097 
z
M 1959 3584 
Q 2709 3584 3137 3096 
Q 3566 2609 3566 1747 
Q 3566 888 3137 398 
Q 2709 -91 1959 -91 
Q 1206 -91 779 398 
Q 353 888 353 1747 
Q 353 2609 779 3096 
Q 1206 3584 1959 3584 
z
" transform="scale(0.015625)"/>
       <path id="DejaVuSans-28" d="M 1984 4856 
Q 1566 4138 1362 3434 
Q 1159 2731 1159 2009 
Q 1159 1288 1364 580 
Q 1569 -128 1984 -844 
L 1484 -844 
Q 1016 -109 783 600 
Q 550 1309 550 2009 
Q 550 2706 781 3412 
Q 1013 4119 1484 4856 
L 1984 4856 
z
" transform="scale(0.015625)"/>
       <path id="DejaVuSans-54" d="M -19 4666 
L 3928 4666 
L 3928 4134 
L 2272 4134 
L 2272 0 
L 1638 0 
L 1638 4134 
L -19 4134 
L -19 4666 
z
" transform="scale(0.015625)"/>
       <path id="DejaVuSans-63" d="M 3122 3366 
L 3122 2828 
Q 2878 2963 2633 3030 
Q 2388 3097 2138 3097 
Q 1578 3097 1268 2742 
Q 959 2388 959 1747 
Q 959 1106 1268 751 
Q 1578 397 2138 397 
Q 2388 397 2633 464 
Q 2878 531 3122 666 
L 3122 134 
Q 2881 22 2623 -34 
Q 2366 -91 2075 -91 
Q 1284 -91 818 406 
Q 353 903 353 1747 
Q 353 2603 823 3093 
Q 1294 3584 2113 3584 
Q 2378 3584 2631 3529 
Q 2884 3475 3122 3366 
z
" transform="scale(0.015625)"/>
       <path id="DejaVuSans-25" d="M 4653 2053 
Q 4381 2053 4226 1822 
Q 4072 1591 4072 1178 
Q 4072 772 4226 539 
Q 4381 306 4653 306 
Q 4919 306 5073 539 
Q 5228 772 5228 1178 
Q 5228 1588 5073 1820 
Q 4919 2053 4653 2053 
z
M 4653 2450 
Q 5147 2450 5437 2106 
Q 5728 1763 5728 1178 
Q 5728 594 5436 251 
Q 5144 -91 4653 -91 
Q 4153 -91 3862 251 
Q 3572 594 3572 1178 
Q 3572 1766 3864 2108 
Q 4156 2450 4653 2450 
z
M 1428 4353 
Q 1159 4353 1004 4120 
Q 850 3888 850 3481 
Q 850 3069 1003 2837 
Q 1156 2606 1428 2606 
Q 1700 2606 1854 2837 
Q 2009 3069 2009 3481 
Q 2009 3884 1853 4118 
Q 1697 4353 1428 4353 
z
M 4250 4750 
L 4750 4750 
L 1831 -91 
L 1331 -91 
L 4250 4750 
z
M 1428 4750 
Q 1922 4750 2215 4408 
Q 2509 4066 2509 3481 
Q 2509 2891 2217 2550 
Q 1925 2209 1428 2209 
Q 931 2209 642 2551 
Q 353 2894 353 3481 
Q 353 4063 643 4406 
Q 934 4750 1428 4750 
z
" transform="scale(0.015625)"/>
       <path id="DejaVuSans-29" d="M 513 4856 
L 1013 4856 
Q 1481 4119 1714 3412 
Q 1947 2706 1947 2009 
Q 1947 1309 1714 600 
Q 1481 -109 1013 -844 
L 513 -844 
Q 928 -128 1133 580 
Q 1338 1288 1338 2009 
Q 1338 2731 1133 3434 
Q 928 4138 513 4856 
z
" transform="scale(0.015625)"/>
      </defs>
      <use xlink:href="#DejaVuSans-44"/>
      <use xlink:href="#DejaVuSans-65" transform="translate(77.001953 0)"/>
      <use xlink:href="#DejaVuSans-62" transform="translate(138.525391 0)"/>
      <use xlink:href="#DejaVuSans-74" transform="translate(202.001953 0)"/>
      <use xlink:href="#DejaVuSans-20" transform="translate(241.210938 0)"/>
      <use xlink:href="#DejaVuSans-4d" transform="translate(272.998047 0)"/>
      <use xlink:href="#DejaVuSans-69" transform="translate(359.277344 0)"/>
      <use xlink:href="#DejaVuSans-78" transform="translate(387.060547 0)"/>
      <use xlink:href="#DejaVuSans-20" transform="translate(446.240234 0)"/>
      <use xlink:href="#DejaVuSans-52" transform="translate(478.027344 0)"/>
      <use xlink:href="#DejaVuSans-61" transform="translate(545.259766 0)"/>
      <use xlink:href="#DejaVuSans-74" transform="translate(606.539062 0)"/>
      <use xlink:href="#DejaVuSans-69" transform="translate(645.748047 0)"/>
      <use xlink:href="#DejaVuSans-6f" transform="translate(673.53125 0)"/>
      <use xlink:href="#DejaVuSans-20" transform="translate(734.712891 0)"/>
      <use xlink:href="#DejaVuSans-28" transform="translate(766.5 0)"/>
      <use xlink:href="#DejaVuSans-54" transform="translate(805.513672 0)"/>
      <use xlink:href="#DejaVuSans-6f" transform="translate(849.597656 0)"/>
      <use xlink:href="#DejaVuSans-78" transform="translate(907.654297 0)"/>
      <use xlink:href="#DejaVuSans-69" transform="translate(966.833984 0)"/>
      <use xlink:href="#DejaVuSans-63" transform="translate(994.617188 0)"/>
      <use xlink:href="#DejaVuSans-20" transform="translate(1049.597656 0)"/>
      <use xlink:href="#DejaVuSans-44" transform="translate(1081.384766 0)"/>
      <use xlink:href="#DejaVuSans-65" transform="translate(1158.386719 0)"/>
      <use xlink:href="#DejaVuSans-62" transform="translate(1219.910156 0)"/>
      <use xlink:href="#DejaVuSans-74" transform="translate(1283.386719 0)"/>
      <use xlink:href="#DejaVuSans-20" transform="translate(1322.595703 0)"/>
      <use xlink:href="#DejaVuSans-25" transform="translate(1354.382812 0)"/>
      <use xlink:href="#DejaVuSans-29" transform="translate(1449.402344 0)"/>
     </g>
    </g>
   </g>
   <g id="matplotlib.axis_2">
    <g id="ytick_1">
     <g id="line2d_9">
      <path d="M 49.807188 370.477813 
L 607.807188 370.477813 
" clip-path="url(#p2d00582ee7)" style="fill: none; stroke: #cccccc; stroke-linecap: round"/>
     </g>
     <g id="text_10">
      <!-- 0.0 -->
      <g style="fill: #262626" transform="translate(22.81375 374.656953) scale(0.11 -0.11)">
       <use xlink:href="#DejaVuSans-30"/>
       <use xlink:href="#DejaVuSans-2e" transform="translate(63.623047 0)"/>
       <use xlink:href="#DejaVuSans-30" transform="translate(95.410156 0)"/>
      </g>
     </g>
    </g>
    <g id="ytick_2">
     <g id="line2d_10">
      <path d="M 49.807188 316.246355 
L 607.807188 316.246355 
" clip-path="url(#p2d00582ee7)" style="fill: none; stroke: #cccccc; stroke-linecap: round"/>
     </g>
     <g id="text_11">
      <!-- 0.2 -->
      <g style="fill: #262626" transform="translate(22.81375 320.425495) scale(0.11 -0.11)">
       <use xlink:href="#DejaVuSans-30"/>
       <use xlink:href="#DejaVuSans-2e" transform="translate(63.623047 0)"/>
       <use xlink:href="#DejaVuSans-32" transform="translate(95.410156 0)"/>
      </g>
     </g>
    </g>
    <g id="ytick_3">
     <g id="line2d_11">
      <path d="M 49.807188 262.014897 
L 607.807188 262.014897 
" clip-path="url(#p2d00582ee7)" style="fill: none; stroke: #cccccc; stroke-linecap: round"/>
     </g>
     <g id="text_12">
      <!-- 0.4 -->
      <g style="fill: #262626" transform="translate(22.81375 266.194037) scale(0.11 -0.11)">
       <use xlink:href="#DejaVuSans-30"/>
       <use xlink:href="#DejaVuSans-2e" transform="translate(63.623047 0)"/>
       <use xlink:href="#DejaVuSans-34" transform="translate(95.410156 0)"/>
      </g>
     </g>
    </g>
    <g id="ytick_4">
     <g id="line2d_12">
      <path d="M 49.807188 207.783439 
L 607.807188 207.783439 
" clip-path="url(#p2d00582ee7)" style="fill: none; stroke: #cccccc; stroke-linecap: round"/>
     </g>
     <g id="text_13">
      <!-- 0.6 -->
      <g style="fill: #262626" transform="translate(22.81375 211.96258) scale(0.11 -0.11)">
       <use xlink:href="#DejaVuSans-30"/>
       <use xlink:href="#DejaVuSans-2e" transform="translate(63.623047 0)"/>
       <use xlink:href="#DejaVuSans-36" transform="translate(95.410156 0)"/>
      </g>
     </g>
    </g>
    <g id="ytick_5">
     <g id="line2d_13">
      <path d="M 49.807188 153.551981 
L 607.807188 153.551981 
" clip-path="url(#p2d00582ee7)" style="fill: none; stroke: #cccccc; stroke-linecap: round"/>
     </g>
     <g id="text_14">
      <!-- 0.8 -->
      <g style="fill: #262626" transform="translate(22.81375 157.731122) scale(0.11 -0.11)">
       <use xlink:href="#DejaVuSans-30"/>
       <use xlink:href="#DejaVuSans-2e" transform="translate(63.623047 0)"/>
       <use xlink:href="#DejaVuSans-38" transform="translate(95.410156 0)"/>
      </g>
     </g>
    </g>
    <g id="ytick_6">
     <g id="line2d_14">
      <path d="M 49.807188 99.320523 
L 607.807188 99.320523 
" clip-path="url(#p2d00582ee7)" style="fill: none; stroke: #cccccc; stroke-linecap: round"/>
     </g>
     <g id="text_15">
      <!-- 1.0 -->
      <g style="fill: #262626" transform="translate(22.81375 103.499664) scale(0.11 -0.11)">
       <use xlink:href="#DejaVuSans-31"/>
       <use xlink:href="#DejaVuSans-2e" transform="translate(63.623047 0)"/>
       <use xlink:href="#DejaVuSans-30" transform="translate(95.410156 0)"/>
      </g>
     </g>
    </g>
    <g id="ytick_7">
     <g id="line2d_15">
      <path d="M 49.807188 45.089065 
L 607.807188 45.089065 
" clip-path="url(#p2d00582ee7)" style="fill: none; stroke: #cccccc; stroke-linecap: round"/>
     </g>
     <g id="text_16">
      <!-- 1.2 -->
      <g style="fill: #262626" transform="translate(22.81375 49.268206) scale(0.11 -0.11)">
       <use xlink:href="#DejaVuSans-31"/>
       <use xlink:href="#DejaVuSans-2e" transform="translate(63.623047 0)"/>
       <use xlink:href="#DejaVuSans-32" transform="translate(95.410156 0)"/>
      </g>
     </g>
    </g>
    <g id="text_17">
     <!-- Density -->
     <g style="fill: #262626" transform="translate(16.318125 226.968125) rotate(-90) scale(0.12 -0.12)">
      <defs>
       <path id="DejaVuSans-6e" d="M 3513 2113 
L 3513 0 
L 2938 0 
L 2938 2094 
Q 2938 2591 2744 2837 
Q 2550 3084 2163 3084 
Q 1697 3084 1428 2787 
Q 1159 2491 1159 1978 
L 1159 0 
L 581 0 
L 581 3500 
L 1159 3500 
L 1159 2956 
Q 1366 3272 1645 3428 
Q 1925 3584 2291 3584 
Q 2894 3584 3203 3211 
Q 3513 2838 3513 2113 
z
" transform="scale(0.015625)"/>
       <path id="DejaVuSans-73" d="M 2834 3397 
L 2834 2853 
Q 2591 2978 2328 3040 
Q 2066 3103 1784 3103 
Q 1356 3103 1142 2972 
Q 928 2841 928 2578 
Q 928 2378 1081 2264 
Q 1234 2150 1697 2047 
L 1894 2003 
Q 2506 1872 2764 1633 
Q 3022 1394 3022 966 
Q 3022 478 2636 193 
Q 2250 -91 1575 -91 
Q 1294 -91 989 -36 
Q 684 19 347 128 
L 347 722 
Q 666 556 975 473 
Q 1284 391 1588 391 
Q 1994 391 2212 530 
Q 2431 669 2431 922 
Q 2431 1156 2273 1281 
Q 2116 1406 1581 1522 
L 1381 1569 
Q 847 1681 609 1914 
Q 372 2147 372 2553 
Q 372 3047 722 3315 
Q 1072 3584 1716 3584 
Q 2034 3584 2315 3537 
Q 2597 3491 2834 3397 
z
" transform="scale(0.015625)"/>
       <path id="DejaVuSans-79" d="M 2059 -325 
Q 1816 -950 1584 -1140 
Q 1353 -1331 966 -1331 
L 506 -1331 
L 506 -850 
L 844 -850 
Q 1081 -850 1212 -737 
Q 1344 -625 1503 -206 
L 1606 56 
L 191 3500 
L 800 3500 
L 1894 763 
L 2988 3500 
L 3597 3500 
L 2059 -325 
z
" transform="scale(0.015625)"/>
      </defs>
      <use xlink:href="#DejaVuSans-44"/>
      <use xlink:href="#DejaVuSans-65" transform="translate(77.001953 0)"/>
      <use xlink:href="#DejaVuSans-6e" transform="translate(138.525391 0)"/>
      <use xlink:href="#DejaVuSans-73" transform="translate(201.904297 0)"/>
      <use xlink:href="#DejaVuSans-69" transform="translate(254.003906 0)"/>
      <use xlink:href="#DejaVuSans-74" transform="translate(281.787109 0)"/>
      <use xlink:href="#DejaVuSans-79" transform="translate(320.996094 0)"/>
     </g>
    </g>
   </g>
   <g id="FillBetweenPolyCollection_1">
    <defs>
     <path id="mc747bf26b5" d="M 75.170824 -43.218051 
L 75.170824 -42.959688 
L 77.719933 -42.959688 
L 80.269042 -42.959688 
L 82.818151 -42.959688 
L 85.367261 -42.959688 
L 87.91637 -42.959688 
L 90.465479 -42.959688 
L 93.014588 -42.959688 
L 95.563697 -42.959688 
L 98.112807 -42.959688 
L 100.661916 -42.959688 
L 103.211025 -42.959688 
L 105.760134 -42.959688 
L 108.309243 -42.959688 
L 110.858352 -42.959688 
L 113.407462 -42.959688 
L 115.956571 -42.959688 
L 118.50568 -42.959688 
L 121.054789 -42.959688 
L 123.603898 -42.959688 
L 126.153008 -42.959688 
L 128.702117 -42.959688 
L 131.251226 -42.959688 
L 133.800335 -42.959688 
L 136.349444 -42.959688 
L 138.898553 -42.959688 
L 141.447663 -42.959688 
L 143.996772 -42.959688 
L 146.545881 -42.959688 
L 149.09499 -42.959688 
L 151.644099 -42.959688 
L 154.193209 -42.959688 
L 156.742318 -42.959688 
L 159.291427 -42.959688 
L 161.840536 -42.959688 
L 164.389645 -42.959688 
L 166.938754 -42.959688 
L 169.487864 -42.959688 
L 172.036973 -42.959688 
L 174.586082 -42.959688 
L 177.135191 -42.959688 
L 179.6843 -42.959688 
L 182.23341 -42.959688 
L 184.782519 -42.959688 
L 187.331628 -42.959688 
L 189.880737 -42.959688 
L 192.429846 -42.959688 
L 194.978955 -42.959688 
L 197.528065 -42.959688 
L 200.077174 -42.959688 
L 202.626283 -42.959688 
L 205.175392 -42.959688 
L 207.724501 -42.959688 
L 210.273611 -42.959688 
L 212.82272 -42.959688 
L 215.371829 -42.959688 
L 217.920938 -42.959688 
L 220.470047 -42.959688 
L 223.019156 -42.959688 
L 225.568266 -42.959688 
L 228.117375 -42.959688 
L 230.666484 -42.959688 
L 233.215593 -42.959688 
L 235.764702 -42.959688 
L 238.313812 -42.959688 
L 240.862921 -42.959688 
L 243.41203 -42.959688 
L 245.961139 -42.959688 
L 248.510248 -42.959688 
L 251.059357 -42.959688 
L 253.608467 -42.959688 
L 256.157576 -42.959688 
L 258.706685 -42.959688 
L 261.255794 -42.959688 
L 263.804903 -42.959688 
L 266.354013 -42.959688 
L 268.903122 -42.959688 
L 271.452231 -42.959688 
L 274.00134 -42.959688 
L 276.550449 -42.959688 
L 279.099558 -42.959688 
L 281.648668 -42.959688 
L 284.197777 -42.959688 
L 286.746886 -42.959688 
L 289.295995 -42.959688 
L 291.845104 -42.959688 
L 294.394214 -42.959688 
L 296.943323 -42.959688 
L 299.492432 -42.959688 
L 302.041541 -42.959688 
L 304.59065 -42.959688 
L 307.139759 -42.959688 
L 309.688869 -42.959688 
L 312.237978 -42.959688 
L 314.787087 -42.959688 
L 317.336196 -42.959688 
L 319.885305 -42.959688 
L 322.434415 -42.959688 
L 324.983524 -42.959688 
L 327.532633 -42.959688 
L 330.081742 -42.959688 
L 332.630851 -42.959688 
L 335.17996 -42.959688 
L 337.72907 -42.959688 
L 340.278179 -42.959688 
L 342.827288 -42.959688 
L 345.376397 -42.959688 
L 347.925506 -42.959688 
L 350.474616 -42.959688 
L 353.023725 -42.959688 
L 355.572834 -42.959688 
L 358.121943 -42.959688 
L 360.671052 -42.959688 
L 363.220161 -42.959688 
L 365.769271 -42.959688 
L 368.31838 -42.959688 
L 370.867489 -42.959688 
L 373.416598 -42.959688 
L 375.965707 -42.959688 
L 378.514817 -42.959688 
L 381.063926 -42.959688 
L 383.613035 -42.959688 
L 386.162144 -42.959688 
L 388.711253 -42.959688 
L 391.260362 -42.959688 
L 393.809472 -42.959688 
L 396.358581 -42.959688 
L 398.90769 -42.959688 
L 401.456799 -42.959688 
L 404.005908 -42.959688 
L 406.555018 -42.959688 
L 409.104127 -42.959688 
L 411.653236 -42.959688 
L 414.202345 -42.959688 
L 416.751454 -42.959688 
L 419.300563 -42.959688 
L 421.849673 -42.959688 
L 424.398782 -42.959688 
L 426.947891 -42.959688 
L 429.497 -42.959688 
L 432.046109 -42.959688 
L 434.595219 -42.959688 
L 437.144328 -42.959688 
L 439.693437 -42.959688 
L 442.242546 -42.959688 
L 444.791655 -42.959688 
L 447.340764 -42.959688 
L 449.889874 -42.959688 
L 452.438983 -42.959688 
L 454.988092 -42.959688 
L 457.537201 -42.959688 
L 460.08631 -42.959688 
L 462.63542 -42.959688 
L 465.184529 -42.959688 
L 467.733638 -42.959688 
L 470.282747 -42.959688 
L 472.831856 -42.959688 
L 475.380965 -42.959688 
L 477.930075 -42.959688 
L 480.479184 -42.959688 
L 483.028293 -42.959688 
L 485.577402 -42.959688 
L 488.126511 -42.959688 
L 490.675621 -42.959688 
L 493.22473 -42.959688 
L 495.773839 -42.959688 
L 498.322948 -42.959688 
L 500.872057 -42.959688 
L 503.421166 -42.959688 
L 505.970276 -42.959688 
L 508.519385 -42.959688 
L 511.068494 -42.959688 
L 513.617603 -42.959688 
L 516.166712 -42.959688 
L 518.715822 -42.959688 
L 521.264931 -42.959688 
L 523.81404 -42.959688 
L 526.363149 -42.959688 
L 528.912258 -42.959688 
L 531.461367 -42.959688 
L 534.010477 -42.959688 
L 536.559586 -42.959688 
L 539.108695 -42.959688 
L 541.657804 -42.959688 
L 544.206913 -42.959688 
L 546.756023 -42.959688 
L 549.305132 -42.959688 
L 551.854241 -42.959688 
L 554.40335 -42.959688 
L 556.952459 -42.959688 
L 559.501568 -42.959688 
L 562.050678 -42.959688 
L 564.599787 -42.959688 
L 567.148896 -42.959688 
L 569.698005 -42.959688 
L 572.247114 -42.959688 
L 574.796224 -42.959688 
L 577.345333 -42.959688 
L 579.894442 -42.959688 
L 582.443551 -42.959688 
L 582.443551 -43.665506 
L 582.443551 -43.665506 
L 579.894442 -43.884502 
L 577.345333 -44.163294 
L 574.796224 -44.515611 
L 572.247114 -44.957577 
L 569.698005 -45.50793 
L 567.148896 -46.188204 
L 564.599787 -47.022863 
L 562.050678 -48.039365 
L 559.501568 -49.268142 
L 556.952459 -50.742469 
L 554.40335 -52.498213 
L 551.854241 -54.57343 
L 549.305132 -57.007817 
L 546.756023 -59.84199 
L 544.206913 -63.116608 
L 541.657804 -66.871328 
L 539.108695 -71.143621 
L 536.559586 -75.96747 
L 534.010477 -81.37199 
L 531.461367 -87.380001 
L 528.912258 -94.006623 
L 526.363149 -101.257951 
L 523.81404 -109.129868 
L 521.264931 -117.607064 
L 518.715822 -126.662333 
L 516.166712 -136.256195 
L 513.617603 -146.336901 
L 511.068494 -156.840848 
L 508.519385 -167.693422 
L 505.970276 -178.810275 
L 503.421166 -190.099002 
L 500.872057 -201.461188 
L 498.322948 -212.794745 
L 495.773839 -223.996473 
L 493.22473 -234.964746 
L 490.675621 -245.602214 
L 488.126511 -255.818411 
L 485.577402 -265.532175 
L 483.028293 -274.673762 
L 480.479184 -283.186578 
L 477.930075 -291.028458 
L 475.380965 -298.172436 
L 472.831856 -304.606991 
L 470.282747 -310.33576 
L 467.733638 -315.376741 
L 465.184529 -319.761048 
L 462.63542 -323.531256 
L 460.08631 -326.739443 
L 457.537201 -329.445 
L 454.988092 -331.712326 
L 452.438983 -333.608481 
L 449.889874 -335.200911 
L 447.340764 -336.555317 
L 444.791655 -337.733742 
L 442.242546 -338.792932 
L 439.693437 -339.783016 
L 437.144328 -340.746526 
L 434.595219 -341.717758 
L 432.046109 -342.722486 
L 429.497 -343.777981 
L 426.947891 -344.893331 
L 424.398782 -346.070006 
L 421.849673 -347.30262 
L 419.300563 -348.579864 
L 416.751454 -349.885532 
L 414.202345 -351.199617 
L 411.653236 -352.499421 
L 409.104127 -353.760649 
L 406.555018 -354.958448 
L 404.005908 -356.068371 
L 401.456799 -357.067242 
L 398.90769 -357.933919 
L 396.358581 -358.649935 
L 393.809472 -359.200022 
L 391.260362 -359.572524 
L 388.711253 -359.759687 
L 386.162144 -359.757854 
L 383.613035 -359.567546 
L 381.063926 -359.193452 
L 378.514817 -358.644324 
L 375.965707 -357.932781 
L 373.416598 -357.075023 
L 370.867489 -356.090451 
L 368.31838 -355.001207 
L 365.769271 -353.831619 
L 363.220161 -352.607566 
L 360.671052 -351.355764 
L 358.121943 -350.102988 
L 355.572834 -348.875246 
L 353.023725 -347.696913 
L 350.474616 -346.589872 
L 347.925506 -345.572673 
L 345.376397 -344.659749 
L 342.827288 -343.860727 
L 340.278179 -343.179852 
L 337.72907 -342.615583 
L 335.17996 -342.160356 
L 332.630851 -341.800557 
L 330.081742 -341.516707 
L 327.532633 -341.283866 
L 324.983524 -341.072252 
L 322.434415 -340.848047 
L 319.885305 -340.574377 
L 317.336196 -340.212429 
L 314.787087 -339.722655 
L 312.237978 -339.066026 
L 309.688869 -338.205283 
L 307.139759 -337.106134 
L 304.59065 -335.73836 
L 302.041541 -334.076774 
L 299.492432 -332.10201 
L 296.943323 -329.801107 
L 294.394214 -327.167875 
L 291.845104 -324.203031 
L 289.295995 -320.914119 
L 286.746886 -317.315205 
L 284.197777 -313.426392 
L 281.648668 -309.273163 
L 279.099558 -304.885595 
L 276.550449 -300.297482 
L 274.00134 -295.545396 
L 271.452231 -290.667728 
L 268.903122 -285.703742 
L 266.354013 -280.692678 
L 263.804903 -275.672909 
L 261.255794 -270.681194 
L 258.706685 -265.75202 
L 256.157576 -260.917043 
L 253.608467 -256.204631 
L 251.059357 -251.639499 
L 248.510248 -247.24242 
L 245.961139 -243.030019 
L 243.41203 -239.014619 
L 240.862921 -235.204137 
L 238.313812 -231.602029 
L 235.764702 -228.207263 
L 233.215593 -225.014338 
L 230.666484 -222.01333 
L 228.117375 -219.190001 
L 225.568266 -216.525944 
L 223.019156 -213.998812 
L 220.470047 -211.582616 
L 217.920938 -209.248113 
L 215.371829 -206.96329 
L 212.82272 -204.693953 
L 210.273611 -202.404409 
L 207.724501 -200.058239 
L 205.175392 -197.619157 
L 202.626283 -195.051918 
L 200.077174 -192.32326 
L 197.528065 -189.402857 
L 194.978955 -186.26423 
L 192.429846 -182.885598 
L 189.880737 -179.250625 
L 187.331628 -175.349037 
L 184.782519 -171.177067 
L 182.23341 -166.737728 
L 179.6843 -162.040871 
L 177.135191 -157.103036 
L 174.586082 -151.947102 
L 172.036973 -146.60173 
L 169.487864 -141.100629 
L 166.938754 -135.481669 
L 164.389645 -129.785876 
L 161.840536 -124.056342 
L 159.291427 -118.337097 
L 156.742318 -112.671975 
L 154.193209 -107.103532 
L 151.644099 -101.672034 
L 149.09499 -96.414563 
L 146.545881 -91.364261 
L 143.996772 -86.54973 
L 141.447663 -81.994611 
L 138.898553 -77.717327 
L 136.349444 -73.731012 
L 133.800335 -70.04359 
L 131.251226 -66.658006 
L 128.702117 -63.572582 
L 126.153008 -60.781471 
L 123.603898 -58.275187 
L 121.054789 -56.041188 
L 118.50568 -54.064473 
L 115.956571 -52.328188 
L 113.407462 -50.814206 
L 110.858352 -49.503666 
L 108.309243 -48.377466 
L 105.760134 -47.416691 
L 103.211025 -46.602971 
L 100.661916 -45.918778 
L 98.112807 -45.347643 
L 95.563697 -44.87432 
L 93.014588 -44.48488 
L 90.465479 -44.16676 
L 87.91637 -43.908765 
L 85.367261 -43.701033 
L 82.818151 -43.53497 
L 80.269042 -43.403169 
L 77.719933 -43.299308 
L 75.170824 -43.218051 
z
" style="stroke: #1d6c8a"/>
    </defs>
    <g clip-path="url(#p2d00582ee7)">
     <use xlink:href="#mc747bf26b5" x="0" y="413.4375" style="fill: #1d6c8a; fill-opacity: 0.25; stroke: #1d6c8a"/>
    </g>
   </g>
   <g id="FillBetweenPolyCollection_2">
    <defs>
     <path id="m6b22b73a21" d="M 89.037738 -43.320625 
L 89.037738 -42.959688 
L 91.462799 -42.959688 
L 93.887861 -42.959688 
L 96.312923 -42.959688 
L 98.737984 -42.959688 
L 101.163046 -42.959688 
L 103.588107 -42.959688 
L 106.013169 -42.959688 
L 108.43823 -42.959688 
L 110.863292 -42.959688 
L 113.288354 -42.959688 
L 115.713415 -42.959688 
L 118.138477 -42.959688 
L 120.563538 -42.959688 
L 122.9886 -42.959688 
L 125.413661 -42.959688 
L 127.838723 -42.959688 
L 130.263785 -42.959688 
L 132.688846 -42.959688 
L 135.113908 -42.959688 
L 137.538969 -42.959688 
L 139.964031 -42.959688 
L 142.389092 -42.959688 
L 144.814154 -42.959688 
L 147.239216 -42.959688 
L 149.664277 -42.959688 
L 152.089339 -42.959688 
L 154.5144 -42.959688 
L 156.939462 -42.959688 
L 159.364523 -42.959688 
L 161.789585 -42.959688 
L 164.214647 -42.959688 
L 166.639708 -42.959688 
L 169.06477 -42.959688 
L 171.489831 -42.959688 
L 173.914893 -42.959688 
L 176.339954 -42.959688 
L 178.765016 -42.959688 
L 181.190078 -42.959688 
L 183.615139 -42.959688 
L 186.040201 -42.959688 
L 188.465262 -42.959688 
L 190.890324 -42.959688 
L 193.315385 -42.959688 
L 195.740447 -42.959688 
L 198.165509 -42.959688 
L 200.59057 -42.959688 
L 203.015632 -42.959688 
L 205.440693 -42.959688 
L 207.865755 -42.959688 
L 210.290816 -42.959688 
L 212.715878 -42.959688 
L 215.14094 -42.959688 
L 217.566001 -42.959688 
L 219.991063 -42.959688 
L 222.416124 -42.959688 
L 224.841186 -42.959688 
L 227.266247 -42.959688 
L 229.691309 -42.959688 
L 232.116371 -42.959688 
L 234.541432 -42.959688 
L 236.966494 -42.959688 
L 239.391555 -42.959688 
L 241.816617 -42.959688 
L 244.241678 -42.959688 
L 246.66674 -42.959688 
L 249.091802 -42.959688 
L 251.516863 -42.959688 
L 253.941925 -42.959688 
L 256.366986 -42.959688 
L 258.792048 -42.959688 
L 261.217109 -42.959688 
L 263.642171 -42.959688 
L 266.067233 -42.959688 
L 268.492294 -42.959688 
L 270.917356 -42.959688 
L 273.342417 -42.959688 
L 275.767479 -42.959688 
L 278.19254 -42.959688 
L 280.617602 -42.959688 
L 283.042664 -42.959688 
L 285.467725 -42.959688 
L 287.892787 -42.959688 
L 290.317848 -42.959688 
L 292.74291 -42.959688 
L 295.167971 -42.959688 
L 297.593033 -42.959688 
L 300.018095 -42.959688 
L 302.443156 -42.959688 
L 304.868218 -42.959688 
L 307.293279 -42.959688 
L 309.718341 -42.959688 
L 312.143402 -42.959688 
L 314.568464 -42.959688 
L 316.993526 -42.959688 
L 319.418587 -42.959688 
L 321.843649 -42.959688 
L 324.26871 -42.959688 
L 326.693772 -42.959688 
L 329.118833 -42.959688 
L 331.543895 -42.959688 
L 333.968957 -42.959688 
L 336.394018 -42.959688 
L 338.81908 -42.959688 
L 341.244141 -42.959688 
L 343.669203 -42.959688 
L 346.094264 -42.959688 
L 348.519326 -42.959688 
L 350.944388 -42.959688 
L 353.369449 -42.959688 
L 355.794511 -42.959688 
L 358.219572 -42.959688 
L 360.644634 -42.959688 
L 363.069695 -42.959688 
L 365.494757 -42.959688 
L 367.919819 -42.959688 
L 370.34488 -42.959688 
L 372.769942 -42.959688 
L 375.195003 -42.959688 
L 377.620065 -42.959688 
L 380.045126 -42.959688 
L 382.470188 -42.959688 
L 384.89525 -42.959688 
L 387.320311 -42.959688 
L 389.745373 -42.959688 
L 392.170434 -42.959688 
L 394.595496 -42.959688 
L 397.020557 -42.959688 
L 399.445619 -42.959688 
L 401.870681 -42.959688 
L 404.295742 -42.959688 
L 406.720804 -42.959688 
L 409.145865 -42.959688 
L 411.570927 -42.959688 
L 413.995988 -42.959688 
L 416.42105 -42.959688 
L 418.846112 -42.959688 
L 421.271173 -42.959688 
L 423.696235 -42.959688 
L 426.121296 -42.959688 
L 428.546358 -42.959688 
L 430.971419 -42.959688 
L 433.396481 -42.959688 
L 435.821543 -42.959688 
L 438.246604 -42.959688 
L 440.671666 -42.959688 
L 443.096727 -42.959688 
L 445.521789 -42.959688 
L 447.94685 -42.959688 
L 450.371912 -42.959688 
L 452.796974 -42.959688 
L 455.222035 -42.959688 
L 457.647097 -42.959688 
L 460.072158 -42.959688 
L 462.49722 -42.959688 
L 464.922281 -42.959688 
L 467.347343 -42.959688 
L 469.772405 -42.959688 
L 472.197466 -42.959688 
L 474.622528 -42.959688 
L 477.047589 -42.959688 
L 479.472651 -42.959688 
L 481.897712 -42.959688 
L 484.322774 -42.959688 
L 486.747836 -42.959688 
L 489.172897 -42.959688 
L 491.597959 -42.959688 
L 494.02302 -42.959688 
L 496.448082 -42.959688 
L 498.873143 -42.959688 
L 501.298205 -42.959688 
L 503.723267 -42.959688 
L 506.148328 -42.959688 
L 508.57339 -42.959688 
L 510.998451 -42.959688 
L 513.423513 -42.959688 
L 515.848574 -42.959688 
L 518.273636 -42.959688 
L 520.698698 -42.959688 
L 523.123759 -42.959688 
L 525.548821 -42.959688 
L 527.973882 -42.959688 
L 530.398944 -42.959688 
L 532.824005 -42.959688 
L 535.249067 -42.959688 
L 537.674129 -42.959688 
L 540.09919 -42.959688 
L 542.524252 -42.959688 
L 544.949313 -42.959688 
L 547.374375 -42.959688 
L 549.799436 -42.959688 
L 552.224498 -42.959688 
L 554.64956 -42.959688 
L 557.074621 -42.959688 
L 559.499683 -42.959688 
L 561.924744 -42.959688 
L 564.349806 -42.959688 
L 566.774867 -42.959688 
L 569.199929 -42.959688 
L 571.624991 -42.959688 
L 571.624991 -43.323671 
L 571.624991 -43.323671 
L 569.199929 -43.454289 
L 566.774867 -43.626147 
L 564.349806 -43.850219 
L 561.924744 -44.139725 
L 559.499683 -44.510386 
L 557.074621 -44.980654 
L 554.64956 -45.571891 
L 552.224498 -46.308484 
L 549.799436 -47.217854 
L 547.374375 -48.330359 
L 544.949313 -49.679043 
L 542.524252 -51.299234 
L 540.09919 -53.227957 
L 537.674129 -55.503166 
L 535.249067 -58.162791 
L 532.824005 -61.243623 
L 530.398944 -64.780048 
L 527.973882 -68.802677 
L 525.548821 -73.336925 
L 523.123759 -78.401589 
L 520.698698 -84.007505 
L 518.273636 -90.156343 
L 515.848574 -96.839627 
L 513.423513 -104.038036 
L 510.998451 -111.721045 
L 508.57339 -119.846958 
L 506.148328 -128.363346 
L 503.723267 -137.207898 
L 501.298205 -146.309675 
L 498.873143 -155.590708 
L 496.448082 -164.967901 
L 494.02302 -174.355146 
L 491.597959 -183.665558 
L 489.172897 -192.813756 
L 486.747836 -201.71806 
L 484.322774 -210.302543 
L 481.897712 -218.498828 
L 479.472651 -226.247593 
L 477.047589 -233.499704 
L 474.622528 -240.21697 
L 472.197466 -246.372503 
L 469.772405 -251.950687 
L 467.347343 -256.946786 
L 464.922281 -261.366239 
L 462.49722 -265.223673 
L 460.072158 -268.541718 
L 457.647097 -271.349653 
L 455.222035 -273.681979 
L 452.796974 -275.576958 
L 450.371912 -277.075175 
L 447.94685 -278.218191 
L 445.521789 -279.047317 
L 443.096727 -279.602558 
L 440.671666 -279.921743 
L 438.246604 -280.039886 
L 435.821543 -279.98876 
L 433.396481 -279.796708 
L 430.971419 -279.488665 
L 428.546358 -279.086384 
L 426.121296 -278.608818 
L 423.696235 -278.072638 
L 421.271173 -277.492815 
L 418.846112 -276.883249 
L 416.42105 -276.257354 
L 413.995988 -275.628591 
L 411.570927 -275.010868 
L 409.145865 -274.418802 
L 406.720804 -273.86781 
L 404.295742 -273.374016 
L 401.870681 -272.95399 
L 399.445619 -272.62434 
L 397.020557 -272.40117 
L 394.595496 -272.299481 
L 392.170434 -272.332523 
L 389.745373 -272.511177 
L 387.320311 -272.843403 
L 384.89525 -273.333798 
L 382.470188 -273.983289 
L 380.045126 -274.789006 
L 377.620065 -275.744311 
L 375.195003 -276.839012 
L 372.769942 -278.059724 
L 370.34488 -279.39037 
L 367.919819 -280.81278 
L 365.494757 -282.307358 
L 363.069695 -283.853783 
L 360.644634 -285.431709 
L 358.219572 -287.02144 
L 355.794511 -288.604547 
L 353.369449 -290.164433 
L 350.944388 -291.686808 
L 348.519326 -293.160109 
L 346.094264 -294.575823 
L 343.669203 -295.928757 
L 341.244141 -297.217226 
L 338.81908 -298.443182 
L 336.394018 -299.612259 
L 333.968957 -300.733742 
L 331.543895 -301.820439 
L 329.118833 -302.888435 
L 326.693772 -303.95672 
L 324.26871 -305.046668 
L 321.843649 -306.181354 
L 319.418587 -307.384718 
L 316.993526 -308.680582 
L 314.568464 -310.091537 
L 312.143402 -311.637757 
L 309.718341 -313.335788 
L 307.293279 -315.197372 
L 304.868218 -317.228405 
L 302.443156 -319.428083 
L 300.018095 -321.788327 
L 297.593033 -324.293551 
L 295.167971 -326.920814 
L 292.74291 -329.640382 
L 290.317848 -332.416691 
L 287.892787 -335.209692 
L 285.467725 -337.976487 
L 283.042664 -340.673199 
L 280.617602 -343.25693 
L 278.19254 -345.687726 
L 275.767479 -347.930387 
L 273.342417 -349.95603 
L 270.917356 -351.743285 
L 268.492294 -353.279072 
L 266.067233 -354.558878 
L 263.642171 -355.586553 
L 261.217109 -356.373636 
L 258.792048 -356.938252 
L 256.366986 -357.30368 
L 253.941925 -357.496679 
L 251.516863 -357.545683 
L 249.091802 -357.478972 
L 246.66674 -357.322931 
L 244.241678 -357.10047 
L 241.816617 -356.829681 
L 239.391555 -356.52277 
L 236.966494 -356.185283 
L 234.541432 -355.815626 
L 232.116371 -355.404852 
L 229.691309 -354.936689 
L 227.266247 -354.387764 
L 224.841186 -353.727992 
L 222.416124 -352.921093 
L 219.991063 -351.925225 
L 217.566001 -350.693714 
L 215.14094 -349.175888 
L 212.715878 -347.318037 
L 210.290816 -345.064501 
L 207.865755 -342.358921 
L 205.440693 -339.145652 
L 203.015632 -335.371352 
L 200.59057 -330.986714 
L 198.165509 -325.948323 
L 195.740447 -320.220569 
L 193.315385 -313.777538 
L 190.890324 -306.604801 
L 188.465262 -298.700982 
L 186.040201 -290.079008 
L 183.615139 -280.766945 
L 181.190078 -270.808329 
L 178.765016 -260.261932 
L 176.339954 -249.200943 
L 173.914893 -237.711546 
L 171.489831 -225.890953 
L 169.06477 -213.844959 
L 166.639708 -201.685109 
L 164.214647 -189.525629 
L 161.789585 -177.480235 
L 159.364523 -165.658994 
L 156.939462 -154.165364 
L 154.5144 -143.093552 
L 152.089339 -132.526297 
L 149.664277 -122.533168 
L 147.239216 -113.169412 
L 144.814154 -104.475395 
L 142.389092 -96.476594 
L 139.964031 -89.184124 
L 137.538969 -82.595715 
L 135.113908 -76.697063 
L 132.688846 -71.463461 
L 130.263785 -66.861602 
L 127.838723 -62.851468 
L 125.413661 -59.38821 
L 122.9886 -56.423937 
L 120.563538 -53.909357 
L 118.138477 -51.795225 
L 115.713415 -50.033558 
L 113.288354 -48.578618 
L 110.863292 -47.387652 
L 108.43823 -46.421398 
L 106.013169 -45.644394 
L 103.588107 -45.025098 
L 101.163046 -44.535862 
L 98.737984 -44.152785 
L 96.312923 -43.85548 
L 93.887861 -43.626779 
L 91.462799 -43.452405 
L 89.037738 -43.320625 
z
" style="stroke: #509e90"/>
    </defs>
    <g clip-path="url(#p2d00582ee7)">
     <use xlink:href="#m6b22b73a21" x="0" y="413.4375" style="fill: #509e90; fill-opacity: 0.25; stroke: #509e90"/>
    </g>
   </g>
   <g id="patch_3">
    <path d="M 49.807188 370.477813 
L 49.807188 37.837813 
" style="fill: none; stroke: #cccccc; stroke-width: 1.25; stroke-linejoin: miter; stroke-linecap: square"/>
   </g>
   <g id="patch_4">
    <path d="M 607.807188 370.477813 
L 607.807188 37.837813 
" style="fill: none; stroke: #cccccc; stroke-width: 1.25; stroke-linejoin: miter; stroke-linecap: square"/>
   </g>
   <g id="patch_5">
    <path d="M 49.807187 370.477813 
L 607.807188 370.477813 
" style="fill: none; stroke: #cccccc; stroke-width: 1.25; stroke-linejoin: miter; stroke-linecap: square"/>
   </g>
   <g id="patch_6">
    <path d="M 49.807187 37.837813 
L 607.807188 37.837813 
" style="fill: none; stroke: #cccccc; stroke-width: 1.25; stroke-linejoin: miter; stroke-linecap: square"/>
   </g>
   <g id="text_18">
    <!-- Toxic Debt Distribution: Healthy vs. Insolvent Companies -->
    <g style="fill: #262626" transform="translate(130.084844 17.837813) scale(0.14 -0.14)">
     <defs>
      <path id="DejaVuSans-72" d="M 2631 2963 
Q 2534 3019 2420 3045 
Q 2306 3072 2169 3072 
Q 1681 3072 1420 2755 
Q 1159 2438 1159 1844 
L 1159 0 
L 581 0 
L 581 3500 
L 1159 3500 
L 1159 2956 
Q 1341 3275 1631 3429 
Q 1922 3584 2338 3584 
Q 2397 3584 2469 3576 
Q 2541 3569 2628 3553 
L 2631 2963 
z
" transform="scale(0.015625)"/>
      <path id="DejaVuSans-75" d="M 544 1381 
L 544 3500 
L 1119 3500 
L 1119 1403 
Q 1119 906 1312 657 
Q 1506 409 1894 409 
Q 2359 409 2629 706 
Q 2900 1003 2900 1516 
L 2900 3500 
L 3475 3500 
L 3475 0 
L 2900 0 
L 2900 538 
Q 2691 219 2414 64 
Q 2138 -91 1772 -91 
Q 1169 -91 856 284 
Q 544 659 544 1381 
z
M 1991 3584 
L 1991 3584 
z
" transform="scale(0.015625)"/>
      <path id="DejaVuSans-3a" d="M 750 794 
L 1409 794 
L 1409 0 
L 750 0 
L 750 794 
z
M 750 3309 
L 1409 3309 
L 1409 2516 
L 750 2516 
L 750 3309 
z
" transform="scale(0.015625)"/>
      <path id="DejaVuSans-48" d="M 628 4666 
L 1259 4666 
L 1259 2753 
L 3553 2753 
L 3553 4666 
L 4184 4666 
L 4184 0 
L 3553 0 
L 3553 2222 
L 1259 2222 
L 1259 0 
L 628 0 
L 628 4666 
z
" transform="scale(0.015625)"/>
      <path id="DejaVuSans-6c" d="M 603 4863 
L 1178 4863 
L 1178 0 
L 603 0 
L 603 4863 
z
" transform="scale(0.015625)"/>
      <path id="DejaVuSans-68" d="M 3513 2113 
L 3513 0 
L 2938 0 
L 2938 2094 
Q 2938 2591 2744 2837 
Q 2550 3084 2163 3084 
Q 1697 3084 1428 2787 
Q 1159 2491 1159 1978 
L 1159 0 
L 581 0 
L 581 4863 
L 1159 4863 
L 1159 2956 
Q 1366 3272 1645 3428 
Q 1925 3584 2291 3584 
Q 2894 3584 3203 3211 
Q 3513 2838 3513 2113 
z
" transform="scale(0.015625)"/>
      <path id="DejaVuSans-76" d="M 191 3500 
L 800 3500 
L 1894 563 
L 2988 3500 
L 3597 3500 
L 2284 0 
L 1503 0 
L 191 3500 
z
" transform="scale(0.015625)"/>
      <path id="DejaVuSans-49" d="M 628 4666 
L 1259 4666 
L 1259 0 
L 628 0 
L 628 4666 
z
" transform="scale(0.015625)"/>
      <path id="DejaVuSans-43" d="M 4122 4306 
L 4122 3641 
Q 3803 3938 3442 4084 
Q 3081 4231 2675 4231 
Q 1875 4231 1450 3742 
Q 1025 3253 1025 2328 
Q 1025 1406 1450 917 
Q 1875 428 2675 428 
Q 3081 428 3442 575 
Q 3803 722 4122 1019 
L 4122 359 
Q 3791 134 3420 21 
Q 3050 -91 2638 -91 
Q 1578 -91 968 557 
Q 359 1206 359 2328 
Q 359 3453 968 4101 
Q 1578 4750 2638 4750 
Q 3056 4750 3426 4639 
Q 3797 4528 4122 4306 
z
" transform="scale(0.015625)"/>
      <path id="DejaVuSans-6d" d="M 3328 2828 
Q 3544 3216 3844 3400 
Q 4144 3584 4550 3584 
Q 5097 3584 5394 3201 
Q 5691 2819 5691 2113 
L 5691 0 
L 5113 0 
L 5113 2094 
Q 5113 2597 4934 2840 
Q 4756 3084 4391 3084 
Q 3944 3084 3684 2787 
Q 3425 2491 3425 1978 
L 3425 0 
L 2847 0 
L 2847 2094 
Q 2847 2600 2669 2842 
Q 2491 3084 2119 3084 
Q 1678 3084 1418 2786 
Q 1159 2488 1159 1978 
L 1159 0 
L 581 0 
L 581 3500 
L 1159 3500 
L 1159 2956 
Q 1356 3278 1631 3431 
Q 1906 3584 2284 3584 
Q 2666 3584 2933 3390 
Q 3200 3197 3328 2828 
z
" transform="scale(0.015625)"/>
      <path id="DejaVuSans-70" d="M 1159 525 
L 1159 -1331 
L 581 -1331 
L 581 3500 
L 1159 3500 
L 1159 2969 
Q 1341 3281 1617 3432 
Q 1894 3584 2278 3584 
Q 2916 3584 3314 3078 
Q 3713 2572 3713 1747 
Q 3713 922 3314 415 
Q 2916 -91 2278 -91 
Q 1894 -91 1617 61 
Q 1341 213 1159 525 
z
M 3116 1747 
Q 3116 2381 2855 2742 
Q 2594 3103 2138 3103 
Q 1681 3103 1420 2742 
Q 1159 2381 1159 1747 
Q 1159 1113 1420 752 
Q 1681 391 2138 391 
Q 2594 391 2855 752 
Q 3116 1113 3116 1747 
z
" transform="scale(0.015625)"/>
     </defs>
     <use xlink:href="#DejaVuSans-54"/>
     <use xlink:href="#DejaVuSans-6f" transform="translate(44.083984 0)"/>
     <use xlink:href="#DejaVuSans-78" transform="translate(102.140625 0)"/>
     <use xlink:href="#DejaVuSans-69" transform="translate(161.320312 0)"/>
     <use xlink:href="#DejaVuSans-63" transform="translate(189.103516 0)"/>
     <use xlink:href="#DejaVuSans-20" transform="translate(244.083984 0)"/>
     <use xlink:href="#DejaVuSans-44" transform="translate(275.871094 0)"/>
     <use xlink:href="#DejaVuSans-65" transform="translate(352.873047 0)"/>
     <use xlink:href="#DejaVuSans-62" transform="translate(414.396484 0)"/>
     <use xlink:href="#DejaVuSans-74" transform="translate(477.873047 0)"/>
     <use xlink:href="#DejaVuSans-20" transform="translate(517.082031 0)"/>
     <use xlink:href="#DejaVuSans-44" transform="translate(548.869141 0)"/>
     <use xlink:href="#DejaVuSans-69" transform="translate(625.871094 0)"/>
     <use xlink:href="#DejaVuSans-73" transform="translate(653.654297 0)"/>
     <use xlink:href="#DejaVuSans-74" transform="translate(705.753906 0)"/>
     <use xlink:href="#DejaVuSans-72" transform="translate(744.962891 0)"/>
     <use xlink:href="#DejaVuSans-69" transform="translate(786.076172 0)"/>
     <use xlink:href="#DejaVuSans-62" transform="translate(813.859375 0)"/>
     <use xlink:href="#DejaVuSans-75" transform="translate(877.335938 0)"/>
     <use xlink:href="#DejaVuSans-74" transform="translate(940.714844 0)"/>
     <use xlink:href="#DejaVuSans-69" transform="translate(979.923828 0)"/>
     <use xlink:href="#DejaVuSans-6f" transform="translate(1007.707031 0)"/>
     <use xlink:href="#DejaVuSans-6e" transform="translate(1068.888672 0)"/>
     <use xlink:href="#DejaVuSans-3a" transform="translate(1132.267578 0)"/>
     <use xlink:href="#DejaVuSans-20" transform="translate(1165.958984 0)"/>
     <use xlink:href="#DejaVuSans-48" transform="translate(1197.746094 0)"/>
     <use xlink:href="#DejaVuSans-65" transform="translate(1272.941406 0)"/>
     <use xlink:href="#DejaVuSans-61" transform="translate(1334.464844 0)"/>
     <use xlink:href="#DejaVuSans-6c" transform="translate(1395.744141 0)"/>
     <use xlink:href="#DejaVuSans-74" transform="translate(1423.527344 0)"/>
     <use xlink:href="#DejaVuSans-68" transform="translate(1462.736328 0)"/>
     <use xlink:href="#DejaVuSans-79" transform="translate(1526.115234 0)"/>
     <use xlink:href="#DejaVuSans-20" transform="translate(1585.294922 0)"/>
     <use xlink:href="#DejaVuSans-76" transform="translate(1617.082031 0)"/>
     <use xlink:href="#DejaVuSans-73" transform="translate(1676.261719 0)"/>
     <use xlink:href="#DejaVuSans-2e" transform="translate(1728.361328 0)"/>
     <use xlink:href="#DejaVuSans-20" transform="translate(1760.148438 0)"/>
     <use xlink:href="#DejaVuSans-49" transform="translate(1791.935547 0)"/>
     <use xlink:href="#DejaVuSans-6e" transform="translate(1821.427734 0)"/>
     <use xlink:href="#DejaVuSans-73" transform="translate(1884.806641 0)"/>
     <use xlink:href="#DejaVuSans-6f" transform="translate(1936.90625 0)"/>
     <use xlink:href="#DejaVuSans-6c" transform="translate(1998.087891 0)"/>
     <use xlink:href="#DejaVuSans-76" transform="translate(2025.871094 0)"/>
     <use xlink:href="#DejaVuSans-65" transform="translate(2085.050781 0)"/>
     <use xlink:href="#DejaVuSans-6e" transform="translate(2146.574219 0)"/>
     <use xlink:href="#DejaVuSans-74" transform="translate(2209.953125 0)"/>
     <use xlink:href="#DejaVuSans-20" transform="translate(2249.162109 0)"/>
     <use xlink:href="#DejaVuSans-43" transform="translate(2280.949219 0)"/>
     <use xlink:href="#DejaVuSans-6f" transform="translate(2350.773438 0)"/>
     <use xlink:href="#DejaVuSans-6d" transform="translate(2411.955078 0)"/>
     <use xlink:href="#DejaVuSans-70" transform="translate(2509.367188 0)"/>
     <use xlink:href="#DejaVuSans-61" transform="translate(2572.84375 0)"/>
     <use xlink:href="#DejaVuSans-6e" transform="translate(2634.123047 0)"/>
     <use xlink:href="#DejaVuSans-69" transform="translate(2697.501953 0)"/>
     <use xlink:href="#DejaVuSans-65" transform="translate(2725.285156 0)"/>
     <use xlink:href="#DejaVuSans-73" transform="translate(2786.808594 0)"/>
    </g>
   </g>
   <g id="legend_1">
    <g id="patch_7">
     <path d="M 489.179062 96.377187 
L 600.107187 96.377187 
Q 602.307187 96.377187 602.307187 94.177188 
L 602.307187 45.537812 
Q 602.307187 43.337812 600.107187 43.337812 
L 489.179062 43.337812 
Q 486.979062 43.337812 486.979062 45.537812 
L 486.979062 94.177188 
Q 486.979062 96.377187 489.179062 96.377187 
z
" style="fill: #ffffff; opacity: 0.8; stroke: #cccccc; stroke-linejoin: miter"/>
    </g>
    <g id="text_19">
     <!-- insolvency_status -->
     <g style="fill: #262626" transform="translate(491.379062 56.855937) scale(0.12 -0.12)">
      <defs>
       <path id="DejaVuSans-5f" d="M 3263 -1063 
L 3263 -1509 
L -63 -1509 
L -63 -1063 
L 3263 -1063 
z
" transform="scale(0.015625)"/>
      </defs>
      <use xlink:href="#DejaVuSans-69"/>
      <use xlink:href="#DejaVuSans-6e" transform="translate(27.783203 0)"/>
      <use xlink:href="#DejaVuSans-73" transform="translate(91.162109 0)"/>
      <use xlink:href="#DejaVuSans-6f" transform="translate(143.261719 0)"/>
      <use xlink:href="#DejaVuSans-6c" transform="translate(204.443359 0)"/>
      <use xlink:href="#DejaVuSans-76" transform="translate(232.226562 0)"/>
      <use xlink:href="#DejaVuSans-65" transform="translate(291.40625 0)"/>
      <use xlink:href="#DejaVuSans-6e" transform="translate(352.929688 0)"/>
      <use xlink:href="#DejaVuSans-63" transform="translate(416.308594 0)"/>
      <use xlink:href="#DejaVuSans-79" transform="translate(471.289062 0)"/>
      <use xlink:href="#DejaVuSans-5f" transform="translate(530.46875 0)"/>
      <use xlink:href="#DejaVuSans-73" transform="translate(580.46875 0)"/>
      <use xlink:href="#DejaVuSans-74" transform="translate(632.568359 0)"/>
      <use xlink:href="#DejaVuSans-61" transform="translate(671.777344 0)"/>
      <use xlink:href="#DejaVuSans-74" transform="translate(733.056641 0)"/>
      <use xlink:href="#DejaVuSans-75" transform="translate(772.265625 0)"/>
      <use xlink:href="#DejaVuSans-73" transform="translate(835.644531 0)"/>
     </g>
    </g>
    <g id="patch_8">
     <path d="M 525.74375 73.543594 
L 547.74375 73.543594 
L 547.74375 65.843594 
L 525.74375 65.843594 
z
" style="fill: #509e90; fill-opacity: 0.25; stroke: #509e90; stroke-linejoin: miter"/>
    </g>
    <g id="text_20">
     <!-- 0 -->
     <g style="fill: #262626" transform="translate(556.54375 73.543594) scale(0.11 -0.11)">
      <use xlink:href="#DejaVuSans-30"/>
     </g>
    </g>
    <g id="patch_9">
     <path d="M 525.74375 89.689531 
L 547.74375 89.689531 
L 547.74375 81.989531 
L 525.74375 81.989531 
z
" style="fill: #1d6c8a; fill-opacity: 0.25; stroke: #1d6c8a; stroke-linejoin: miter"/>
    </g>
    <g id="text_21">
     <!-- 1 -->
     <g style="fill: #262626" transform="translate(556.54375 89.689531) scale(0.11 -0.11)">
      <use xlink:href="#DejaVuSans-31"/>
     </g>
    </g>
   </g>
  </g>
 </g>
 <defs>
  <clipPath id="p2d00582ee7">
   <rect x="49.807188" y="37.837813" width="558" height="332.64"/>
  </clipPath>
 </defs>
</svg>
